<svg width="36" height="36" viewBox="0 0 36 36" fill="none" xmlns="http://www.w3.org/2000/svg">
<path d="M0 18C0 8.05887 8.05887 0 18 0V0C27.9411 0 36 8.05887 36 18V18C36 27.9411 27.9411 36 18 36V36C8.05887 36 0 27.9411 0 18V18Z" fill="#1F1F1F"/>
<path d="M14.0213 12.3182H15.8509V19.4773C15.8475 20.1335 15.7083 20.6986 15.4332 21.1726C15.1581 21.6432 14.7737 22.0062 14.2798 22.2614C13.7893 22.5133 13.2176 22.6392 12.5646 22.6392C11.968 22.6392 11.4311 22.5331 10.9538 22.321C10.4799 22.1056 10.1037 21.7874 9.82528 21.3665C9.54688 20.9455 9.40767 20.4219 9.40767 19.7955H11.2422C11.2455 20.0705 11.3052 20.3075 11.4212 20.5064C11.5405 20.7053 11.7045 20.8577 11.9134 20.9638C12.1222 21.0698 12.3625 21.1229 12.6342 21.1229C12.9292 21.1229 13.1795 21.0616 13.3849 20.9389C13.5904 20.813 13.7462 20.6274 13.8523 20.3821C13.9616 20.1368 14.018 19.8352 14.0213 19.4773V12.3182ZM21.3022 22.5H17.8519V12.3182H21.3718C22.3827 12.3182 23.2511 12.522 23.9769 12.9297C24.7061 13.334 25.2662 13.9157 25.6573 14.6747C26.0484 15.4337 26.244 16.3419 26.244 17.3991C26.244 18.4598 26.0468 19.3712 25.6523 20.1335C25.2612 20.8958 24.6961 21.4808 23.957 21.8885C23.2212 22.2962 22.3363 22.5 21.3022 22.5ZM19.6964 20.9041H21.2127C21.922 20.9041 22.5136 20.7749 22.9876 20.5163C23.4615 20.2545 23.8178 19.8651 24.0565 19.348C24.2951 18.8277 24.4144 18.178 24.4144 17.3991C24.4144 16.6203 24.2951 15.974 24.0565 15.4602C23.8178 14.9432 23.4648 14.5571 22.9975 14.3018C22.5335 14.0433 21.9568 13.9141 21.2674 13.9141H19.6964V20.9041Z" fill="#ADADAD"/>
</svg>
