<svg width="94" height="17" viewBox="0 0 94 17" fill="none" xmlns="http://www.w3.org/2000/svg">
<path d="M0.94 16V15.78C2.18 15.46 2.68 15.24 2.74 14.56L3.62 3.1L3.58 3C3.12 1.98 2.86 1.72 1.92 1.52V1.3H6.2L11.02 12.3H11.12L15.26 1.3H19.7V1.52C18.5 1.84 18.24 2.08 18.3 2.74L19.18 14.56C19.22 15.22 19.56 15.46 20.7 15.78V16H14.5V15.78C15.64 15.46 15.9 15.22 15.86 14.56L15.06 3H14.98L10.1 16H9.28L3.98 3.92H3.9L3.08 14.58C3.02 15.24 3.38 15.46 4.88 15.78V16H0.94ZM26.4811 16.18C24.4011 16.18 23.4011 14.88 23.4011 12.52V6.76C23.4011 6.18 23.1611 6 21.9011 5.76V5.54C23.8011 5.54 25.1411 5.42 26.5011 5.08V13.1C26.5011 14.38 26.9011 15.22 28.2811 15.22C28.9211 15.22 29.7811 15.04 30.8811 14.64C30.8611 14.46 30.8411 14.24 30.8411 14.02V6.76C30.8411 6.18 30.6211 6 29.3611 5.76V5.54C31.2411 5.54 32.5811 5.42 33.9411 5.08V14.4C33.9411 15.2 34.2611 15.58 35.1611 15.58C35.3211 15.58 35.4811 15.58 35.6811 15.56V15.8C34.6211 16.02 33.7811 16.12 33.1011 16.12C31.8611 16.12 31.2011 15.74 30.9611 14.94C29.1211 15.76 27.6411 16.18 26.4811 16.18ZM41.8208 16.18C40.4008 16.18 38.8008 15.88 37.1808 15.26V12.2H37.4008C37.9608 15.32 40.3808 15.82 41.8008 15.82C43.3008 15.82 44.0808 15.22 44.0808 14.28C44.0808 13.44 43.4008 12.84 41.9408 12.34C40.1808 11.72 36.8808 11.04 36.8808 8.2C36.8808 6.1 38.8408 5.18 41.1808 5.18C42.5608 5.18 44.1008 5.5 45.4208 6.12V8.56H45.2008C44.7608 6.18 42.8208 5.52 41.2608 5.52C39.7608 5.52 39.0208 6.14 39.0208 6.9C39.0208 7.58 39.5808 8.08 40.6008 8.44C42.5608 9.12 46.3608 9.76 46.3608 12.88C46.3608 15.12 44.4208 16.18 41.8208 16.18ZM52.4014 16.18C50.3214 16.18 49.5814 15.26 49.5814 13.12V5.7H48.0814V5.48C50.0014 4.98 51.4414 4.06 52.4414 2.6H52.6814V5.36H55.4014V5.7H52.6814V13.46C52.6814 14.94 53.2614 15.6 54.6814 15.6C54.9014 15.6 55.1214 15.58 55.4014 15.56V15.8C54.1814 16.06 53.2014 16.18 52.4014 16.18ZM61.0706 16.18C58.5106 16.18 56.3306 14.06 56.3306 10.66C56.3306 7.28 58.5106 5.18 61.0706 5.18C62.0506 5.18 63.1506 5.52 64.1306 6.3V5.54C65.1906 5.54 66.2506 5.42 67.2306 5.08V14.4C67.2306 15.2 67.5706 15.58 68.4506 15.58C68.6106 15.58 68.7506 15.58 68.9506 15.56V15.8C67.9106 16.02 67.0906 16.12 66.4106 16.12C65.1706 16.12 64.5106 15.74 64.2506 14.94C63.2306 15.8 62.0906 16.18 61.0706 16.18ZM62.2306 15.28C62.8306 15.28 63.5106 15.04 64.1706 14.58C64.1506 14.42 64.1306 14.22 64.1306 14.02V6.74C63.4706 6.3 62.8106 6.06 62.2306 6.06C60.6906 6.06 59.5106 7.6 59.5106 10.66C59.5106 13.74 60.6906 15.28 62.2306 15.28ZM69.4825 16V15.78C70.7425 15.54 70.9625 15.36 70.9625 14.78V6.76C70.9625 6.18 70.7425 6 69.4825 5.76V5.54C71.3425 5.54 72.7025 5.42 74.0625 5.08V7.6H74.1425C74.9425 6.06 76.5425 5.4 79.0625 5.18L78.3825 9.66H78.1425C77.8025 7.38 76.9825 6.54 76.1625 6.54C75.3025 6.54 74.4025 7.46 74.0625 8.52V14.78C74.0625 15.36 74.2825 15.54 75.5425 15.78V16H69.4825ZM85.1331 16.18C82.5731 16.18 80.3931 14.06 80.3931 10.66C80.3931 7.28 82.5731 5.18 85.1331 5.18C86.1131 5.18 87.2131 5.52 88.1931 6.3V1.84C88.1931 1.26 87.9731 1.08 86.7131 0.84V0.619999C88.6131 0.619999 89.9531 0.499999 91.2931 0.159999V14.4C91.2931 15.2 91.6131 15.58 92.4931 15.58C92.6531 15.58 92.8131 15.58 93.0131 15.56V15.8C91.9731 16.02 91.1131 16.12 90.4531 16.12C89.2131 16.12 88.5531 15.74 88.3131 14.94C87.2931 15.8 86.1531 16.18 85.1331 16.18ZM86.2931 15.28C86.8931 15.28 87.5731 15.04 88.2331 14.58C88.2131 14.42 88.1931 14.22 88.1931 14.02V6.74C87.5331 6.3 86.8731 6.06 86.2931 6.06C84.7531 6.06 83.5731 7.6 83.5731 10.66C83.5731 13.74 84.7531 15.28 86.2931 15.28Z" fill="#3ECF8E"/>
</svg>
