<svg width="28" height="28" viewBox="0 0 28 28" fill="none" xmlns="http://www.w3.org/2000/svg">
<rect width="28" height="28" fill="#131313"/>
<path d="M1.94 22V21.78C3.18 21.46 3.68 21.24 3.74 20.56L4.62 9.1L4.58 9C4.12 7.98 3.86 7.72 2.92 7.52V7.3H7.2L12.02 18.3H12.12L16.26 7.3H20.7V7.52C19.5 7.84 19.24 8.08 19.3 8.74L20.18 20.56C20.22 21.22 20.56 21.46 21.7 21.78V22H15.5V21.78C16.64 21.46 16.9 21.22 16.86 20.56L16.06 9H15.98L11.1 22H10.28L4.98 9.92H4.9L4.08 20.58C4.02 21.24 4.38 21.46 5.88 21.78V22H1.94Z" fill="#3ECF8E"/>
<circle cx="25" cy="20" r="2" fill="#3ECF8E"/>
</svg>
